<svg fill="none" height="20" viewBox="0 0 20 20" width="20" xmlns="http://www.w3.org/2000/svg"><path d="m17.9099 2.18197c.1953.19526.1953.51184 0 .70711l-5.3227 5.32273c1.4151 1.76684 1.3037 4.35309-.3341 5.99099l-.6636.6636-2.08968 3.4827c-.07922.1321-.21484.2202-.36766.2391-.15281.0188-.30577-.0339-.41464-.1428l-7.07107-7.071c-.10887-.1089-.16151-.2619-.1427-.4147s.10698-.2884.23901-.3676l3.48274-2.08966.66359-.6636c1.63786-1.63785 4.22411-1.74923 5.99101-.33414l5.3227-5.32273c.1953-.19526.5118-.19526.7071 0zm-11.66725 6.71753 4.94975 4.9497.3535-.3535c1.3669-1.3668 1.3669-3.58292 0-4.94975-1.3668-1.36684-3.58287-1.36684-4.9497 0zm-.78462.62961-2.65165 1.59099 6.16542 6.1654 1.591-2.6516z" fill="#212121"/></svg>